<svg xmlns="http://www.w3.org/2000/svg" xmlns:xlink="http://www.w3.org/1999/xlink" width="1200" height="460" viewBox="0 0 1200 460" preserveAspectRatio="xMidYMax"><style>.st0,.st1{fill: #ec9b33;enable-background:new}.st1{fill:#f7b561;}.st2{fill:#f2e6ce}.st3{fill:#f2e4ce}.st4{fill:#e3dac0}.st5{clip-path:url(#SVGID_2_)}.st6{fill:#f7efe4}.st7{fill:#fff}.st8{fill:#c2aa8e;enable-background:new}.st9{clip-path:url(#SVGID_4_)}.st10{fill:#ffdeb7}.st11{fill:#efc593}.st12{fill:#051a2b}.st13{fill:#3a4da1}.st14{clip-path:url(#SVGID_6_)}.st15{fill:#871299}.st16{fill:#192659}.st17{clip-path:url(#SVGID_8_)}.st18{fill:#2a3879}.st19{fill:#192559}.st20{clip-path:url(#SVGID_10_)}.st21{clip-path:url(#SVGID_12_)}.st22{fill:#e5bd8d}.st23{opacity:.7}.st24{fill:#381d0f}.st25{fill:#422212}.st26{fill:#f7d1a4}.st27{clip-path:url(#SVGID_14_)}.st28{fill:#e4bc8c}.st29{clip-path:url(#SVGID_16_)}.st30{clip-path:url(#SVGID_18_)}.st31{fill:#041624}.st32{clip-path:url(#SVGID_20_)}.st33{fill:#ffe956}.st34{fill:#f7dc21}.st35{fill:#e2c810}.st36{fill:#85aac8}.st37{fill:#ffdeb7}.st38{fill:#f7d2a5}.st39{opacity:.1}</style><g class="ghost-shake"><path class="st0" d="M51.7 236.8L1228 171v107.4z"/><path class="st1" d="M102.6 257.2l1117 39V391zM111 223L1231.2 53.9v94.7z"/></g>
<path class="st2 ghost-left-hand" d="M483.1 116.8l21.8 3c4.9.7 6.2-5.1 14.2-12.4 1.7-1.6 6.1-6 9.7-2.9s-5 15.9-5 15.9 16.8-3.9 17.4 3.9-13.9 6.8-13.9 6.8 16.1 2.2 13.7 9.8c-1.4 4.6-12 2-16.9-.8 0 0 9.5 7.2 5.1 11.9s-13.6-5-21.8-13.2c-2.2-2.2-16.3-3.6-29.5-4.2"/>
<g class="ghost-float"><path class="st3" d="M332.3 223.1s-62.4 28.2-48 38c15 10.2 68 3.6 79.7-8.7 19.9-20.9 11-47.3-31.7-29.3z"/><path class="st4" d="M406 219.2s-28.5 60.1-11.6 60.1c9.4.1 53-37.4 58.5-49.3 12.1-26.1-26.3-52.2-46.9-10.8z"/><defs><path id="SVGID_1_" d="M240.7 214c11.2-7 48.1-29.4 65.7-47 45-45 19.4-79.7 43-116.7C367 15.8 409.9-4.6 447.1 5c49.1 12.6 63 88.7 51.3 142.3-19.8 91-43.7 107.3-50.7 114.3s-48.3 34.2-25.3-3.6-20.8 6.3-39 15.2c-15.2 7.5-76.7 29.3-37.3-13.3s-10-23.3-10-23.3-48.8 22.4-87.4 14.4-19.2-30-8-37z"/></defs><clipPath id="SVGID_2_"><use xlink:href="#SVGID_1_" overflow="visible"/></clipPath><g class="st5"><path class="st6" d="M199-33h332v336H199z"/><path class="st7" d="M326.6 96.7s.1-1 .4-2.7c-.3.9-.4 1.8-.4 2.7zM497.6 48.6C513 27.9 527.1-8.4 451-21 351.2-37.5 332.7 66 337.6 86.8c7.6-48 54.6-65.8 98.5-62 27.8 4.3 42.5 19.1 50.2 40.3 20 55.4.2 136.9-33.3 188.9-6.5 10.1-12.1 13.5-12.1 13.5l55.6-15.7 19.1-179.2-18-24zM327.6 137.3c-32.1 63.4-80.3 75.4-80.3 99.5 0 10.2 13.2 16.9 29.4 15.7 14-1-3.7 7.1-3.7 7.1s-62.6 9.2-62.6-13.5S325.5 126 327.6 137.3zM358 245s-21.8 29.2-8.2 33.4c12.4 3.8 36.1-6.2 36.1-6.2l-41.6 34.3L310 273l48-28z"/></g><path class="st8 ghost-mouth" d="M415.7 131.6c1.9-13.4 9.6-26.9 25.2-26.4 10 .3 10.7 9 9.9 14.4-1 6.4-4.3 8.6-5 15.1s2.4 11.2 1.8 17.6c-.6 5.9-4.9 9.4-14.7 8.4-12.6-1.1-18.9-17.4-17.2-29.1z"/><ellipse class="st8 ghost-eye ghost-eye__left" cx="474.5" cy="87.3" rx="6" ry="11"/><ellipse class="st8 ghost-eye ghost-eye__right" cx="409.8" cy="80.6" rx="6.8" ry="12.3"/><path class="st7 ghost-right-hand" d="M353.7 123.2c-16.9-5.8-24.8-3.2-30.3-1.6-11.7 3.5-16.1 5.6-18.7 1.7s10-11.6 10-11.6c-5.7 0-15.5-1.6-15.5-6.5S312 100 312 100s-13.9-7.9-9.2-12.5 18.9 4.8 18.9 4.8-2.5-15.9 2.7-17 6.3 5.1 7 7.3c3.4 10.3 3.4 16.6 8 18.5s18.6 4.1 18.6 4.1c3.8 5.6 2.2 15-4.3 18z"/></g><g id="Runner"><g><defs><path id="SVGID_3_" d="M775.3 562.4s47.4-162.5 50.8-183.4c2.9-18-6.8-14.4-11.7-10.7-7.1 5.5-36.6 23.2-36.6 23.2l-15.9-62.4s42.3-17.4 59.5-22.8 39.8-9.6 51.4 0c15.9 13.2 2.2 81.5-57.8 251.3l-39.7 4.8z"/></defs><clipPath id="SVGID_4_"><use xlink:href="#SVGID_3_" overflow="visible"/></clipPath><g class="st9"><path class="st10" d="M740.4 279.4h152.1v298.1H740.4z"/><path class="st11" d="M744.1 371.3s60.1-25.5 68.8-27.4c16.7-3.8 20.8 17.7 12.9 36.8s-81.7 55.5-81.7 55.5v-64.9zM849.7 298s25.6-4.7 17.2 42.9c-9.2 51.8-66.8 224.1-66.8 224.1h31.3l61.1-238s-10.2-29-42.8-29z"/></g></g><path d="M672.7 137.3s23-18.1 23-34.8 23.5-31.1 23.5-31.1-8.2 11.1-8.2 34.9c0 17-22.9 31-38.3 31z"/><path class="st12" d="M714.4 68.5s-8.5-8-17-6.6c-14.7 2.3-18.9 22.1-30 46.5-9.3 20.5-36.3 17.5-36.3 17.5s24.7 8.3 41.7 5 26-17.3 28-30.3 10.7-20.3 14.7-20.3l-1.1-11.8z"/><path class="st13" d="M722 56.7s-16.7.3-13.7 15.8 14.5 17 16 15.5L722 56.7z"/><defs><path id="SVGID_5_" d="M722 56.7s-16.7.3-13.7 15.8 14.5 17 16 15.5L722 56.7z"/></defs><clipPath id="SVGID_6_"><use xlink:href="#SVGID_5_" overflow="visible"/></clipPath><g class="st14"><path class="st15" d="M702.2 49.9h29.5v44.9h-29.5z"/><path class="st16" d="M705.5 66.3s3.1 7.5 7.1 5.2S721 60 721 60l6.3 28.5-21.8 8.2V66.3z"/></g><defs><path id="SVGID_7_" d="M670.1 372.4s-39.1 97.7-89.8 160.8L617 567s114-154 131.3-194.7l-78.2.1z"/></defs><clipPath id="SVGID_8_"><use xlink:href="#SVGID_7_" overflow="visible"/></clipPath><g class="st17"><path class="st18" d="M562 333h204.1v252H562z"/><path class="st19" d="M693.5 392.8l-54 99.9 38.6 7.2 64.4-97.3z"/></g><defs><path id="SVGID_9_" d="M655.3 465c-7.9-4.6-15.5-12.2-20.3-17.8-16.3 29.1-34.8 61.3-54.7 86L617 567s33.7-45.6 67.3-93.7c-8.8-1-20.4-3.3-29-8.3z"/></defs><clipPath id="SVGID_10_"><use xlink:href="#SVGID_9_" overflow="visible"/></clipPath><g class="st20"><path class="st10" d="M566 408.3h142v184H566z"/><path class="st11" d="M667.1 444.3s-54.5 92.5-86.8 122.7l27.4 28 104.6-128.7-45.2-22z"/></g><defs><path id="SVGID_11_" d="M794.3 215s52.4 12.2 69.3 15.8 41-1 57.5-33.4c14.7-28.9 39.9-90.8 44.2-100.8s10.7-14.8 12.6-17c2.6-2.9 4.4-6.3 5.3-10.1 1.2-4.7.6-17.3-5.4-20.4-2.9-1.5-16.9-6-16.9-6-1.6-.5-10.2-.3-13.9 5.4-2.5 3.9-2.6 11.5-2.6 11.5-.8-2-2.4-3.5-4.4-4.1-3.4-1-7.4-1.5-5.9 1.7 3 6.2 10.8 25 6.7 35.4-2 5.1-30.8 67.9-37.1 81.3s-16.2 27.4-42.5 23.1-88.7-21.3-88.7-21.3l21.8 38.9z"/></defs><clipPath id="SVGID_12_"><use xlink:href="#SVGID_11_" overflow="visible"/></clipPath><g class="st21"><path class="st10" d="M729.5-4.3h262.9v250.5H729.5z"/><path class="st22" d="M979.2 57.4l-3.6 4.9c-6.7 2.2-8.5-.7-18.7-4.2-4.9-1.8-9.1-4.9-12.4-9l-.2 11c1.5 2.4 2.8 5 3.9 7.6 0 0 11.9.4 14.4 11.5 0 0 6.2-6.3 13-6.8 2.8-4.3 3.5-8.7 3.6-15z"/><path class="st11" d="M772.5 184.3s65.5 27.1 88.4 32.5c9.6 2.3 25.6 2.6 37.7-7 19.4-15.5 50.3-94.2 53.3-103.5 5.8-17.8 22.7-30.2 29.5-30.2s-68.1 167.1-68.1 167.1l-133.7-23.4-7.1-35.5z"/><g class="st23"><path class="st24" d="M967.9 42.9c-1.7.1-3.4.4-5.1.9-1.7.5-3.3 1.1-4.9 1.9-.9.5-1.7 1-2.5 1.6l-1.1 1-1 1.1-.5.6-.4.6c-.3.4-.5.8-.7 1.3-.3.9-.6 1.8-.8 2.7-.2.9-.3 1.8-.4 2.7-.1.9-.1 1.7-.1 2.4s.1 2.8.1 3.7v1.4c.1.6-.3 1-.9 1.1-.6.1-1-.3-1.1-.9v-1.5c0-.9 0-2.2.1-3.8s.1-1.6.3-2.5c.1-.9.3-1.9.6-2.8.3-1 .6-2 1.1-2.9.2-.5.5-1 .8-1.4l.5-.7.6-.6 1.2-1.1 1.3-.9c.9-.6 1.8-1.1 2.7-1.5 1.6-.7 3.3-1.3 5.1-1.6 1.7-.4 3.4-.7 5.1-.8z"/></g><g class="st23"><path class="st24" d="M972.7 44.8l-1.3.3-1.5.4-1.9.7-2.1 1.1-2.2 1.4c-.7.5-1.4 1.1-2.1 1.8-.7.7-1.3 1.4-1.8 2.2l-.4.6-.3.6c-.2.4-.4.9-.5 1.3-.3.9-.6 1.8-.8 2.7-.2.9-.3 1.8-.4 2.6s-.2 1.6-.2 2.4-.1 2.7-.1 3.5v1.3c0 .6-.4 1-1 1s-1-.4-1-.9c0 0 0-.5.1-1.4s.1-2.2.3-3.7.2-1.6.4-2.4.4-1.8.6-2.7c.3-1 .6-1.9 1-2.8.2-.5.4-.9.7-1.4l.4-.7.4-.6c.6-.8 1.3-1.6 2.1-2.3.7-.7 1.5-1.3 2.3-1.8l2.4-1.3 2.2-1c1.6-.6 3.2-1 4.9-1.2l-.2.3z"/></g><g class="st23"><path class="st24" d="M978.8 46.9l-1.2.4c-1.1.4-2.1.9-3.1 1.4l-2 1.2-2 1.5-1 .9-1 1-.9 1.1-.4.5-.4.6c-.3.4-.5.8-.7 1.2-.2.4-.4.8-.5 1.2-.3.9-.5 1.7-.7 2.6-.2.9-.3 1.7-.4 2.5s-.2 1.5-.2 2.2-.1 2.6-.1 3.4v1.3c0 .6-.4 1-1 1s-1-.4-1-.9v-1.4c0-.9.1-2.1.3-3.5s.2-1.5.4-2.3.4-1.7.6-2.6c.2-.9.5-1.8.9-2.7.2-.4.4-.9.6-1.3l.8-1.3.5-.6.5-.5 1-1 1-1 1.1-.9 2.2-1.4 2.1-1.1c1.4-.7 2.9-1.2 4.5-1.5h.1z"/></g><path class="st25" d="M945.1 58.7c.5 1.2 1.1 2.3 1.9 3.4.7 1 1.8 2 2.8 2 .3 0 .5.1.6.4.2.5.5 1 .8 1.5.3.4.8.8 1.3 1 1.1.4 2.3.5 3.4.3.2 0 .5.1.6.3l.6.8.3.4.3.3.4.3.4.2.8.3c.6.1 1.2.1 1.8-.1l2-.6c.3-.1.7 0 .8.3v.1c.2.6.6 1.2 1.1 1.6.5.4 1.2.5 1.8.4 1.4-.3 2.7-.9 3.8-1.8h-.1l4.9-6.4h.3c.1 0 .2.2.1.3l-4.2 6.8h-.1c-.7.5-1.4.9-2.1 1.3-.7.4-1.6.7-2.4.8-.9.1-1.8-.1-2.6-.6-.7-.5-1.2-1.3-1.5-2.1l.8.4-2.1.6c-.7.2-1.5.3-2.3.2l-1.2-.4-.5-.3-.5-.4-.4-.4-.4-.4-.6-.9.6.3h-2c-.7 0-1.4-.2-2.1-.5l-.9-.6-.8-.8c-.4-.5-.8-1.2-1-1.8l.6.4c-.8-.1-1.6-.4-2.2-.9-.6-.5-1.1-1-1.5-1.6-.8-1.1-1.6-2.4-2.1-3.7-.1-.3 0-.7.3-.8s.7 0 .8.3l-.3.1z"/><path class="st26" d="M930.9 55.7s10.6 6.2 13.2 16.8-8.3 26.6-8.3 26.6l-4.9-43.4z"/></g><defs><path id="SVGID_13_" d="M766.1 174.2l-91.7-26.5s-56.3-14.5-85.7 14.9C565 186.3 524.4 257 524.4 257l-6.5 9.9c-3.2 4.8-6.1 10.5-4.6 17.3 3.1 14.5 7.7 17.2 7.7 17.2 3.7 4 9.4 6.4 14.9 7 12.5 1.3 17.1-4.8 17.1-8.5v-1.5l1-.6c1.5-.9 3.6-3.2 4.7-6.5s1.7-7.8.2-12.8c-1-3.5-2.3-4-1.9-12.8.5-12.3 48.7-75.7 48.7-75.7s21.8-27.5 62.7-11.7c37.8 14.7 39.6 59.5 39.6 59.5l58.1-63.6z"/></defs><clipPath id="SVGID_14_"><use xlink:href="#SVGID_13_" overflow="visible"/></clipPath><g class="st27"><path class="st10" d="M482.1 101.4h303.3v232.8H482.1z"/><path class="st28" d="M501 290.6s36.8 16.4 46.4 2.9c0 0 0 6.5 5.7 4.8 2.3-.7 3.7 10.1 4.7 10.1 3.3 0-42.1 12.6-42.1 12.6L501 290.6z"/><g class="st23"><path class="st24" d="M527.5 289v1.3c.1 1.1.3 2.2.6 3.3.3 1.5.8 3 1.5 4.4.4.8.8 1.5 1.3 2.2l.8 1 .9 1 2 1.7 2.2 1.3c1.3.7 2.7 1.3 4.2 1.6l1.8.3h2.6c.6 0 1 .4 1 1s-.4 1-1 1H544l-1.5-.2-2-.4c-1.6-.4-3.1-1.1-4.5-1.9l-2-1.6c-.7-.6-1.4-1.2-2.1-1.9l-.9-1.1-.9-1.2c-.5-.8-.9-1.6-1.3-2.4-.6-1.5-1.1-3-1.4-4.6-.2-1.1-.3-2.3-.4-3.4v-1.3c0-.2.1-.3.2-.3s.4 0 .3.2z"/></g><g class="st23"><path class="st24" d="M536.1 289.7v1.2c-.1 1 0 1.9.2 2.9.1.6.3 1.2.5 1.8.3.7.6 1.3.9 1.9l.6 1 .7.9c.5.6 1 1.2 1.6 1.8 1.1 1.1 2.4 2 3.8 2.6l2 .7 1.9.3h4c.6-.1 1 .3 1.1.9.1.6-.3 1-.9 1.1h-2.6l-1.8-.2-2.1-.5-2.2-.9c-1.5-.8-2.9-1.8-4.1-3-.6-.6-1.1-1.3-1.6-2s-.9-1.4-1.3-2.1c-.4-.7-.7-1.4-.9-2.1-.2-.7-.4-1.3-.5-2-.1-1-.1-2.1 0-3.1v-1.1c.1-.2.4-.3.5-.2.1 0 .1.1.2.2v-.1z"/></g><g class="st23"><path class="st24" d="M519.5 288.9v1.4c.1 1.2.3 2.4.6 3.5.5 1.6 1.2 3.1 2.1 4.5l.8 1.1.9 1.1 2.1 1.9c1.5 1.2 3.2 2.2 4.9 3 1.5.7 3.1 1.3 4.7 1.8l1.9.5 1.5.2h1.3c.6 0 1 .4 1 1s-.4 1-1 1h-1.5l-1.6-.3-2.1-.6c-1.7-.6-3.3-1.3-4.9-2.1-1.8-.9-3.5-2.1-5-3.4-.8-.7-1.5-1.4-2.2-2.2l-.9-1.2-.8-1.2c-.9-1.5-1.6-3.2-2.1-4.9-.3-1.2-.5-2.5-.5-3.7v-1.4c0-.2.1-.3.2-.3s.3.1.3.2l.3.1z"/></g><g class="st23"><path class="st24" d="M554.5 298.5h-.3l-.8.3c-.9.3-1.9.3-2.9.1l-.9-.2-.9-.4c-.6-.4-1.2-.9-1.6-1.5-.4-.7-.6-1.5-.6-2.3 0-.5.2-.9.4-1.3l.5-1c.7-1.3 1.2-2.6 1.5-4 .1-.6.2-1.3.3-1.9v-1.7c-.1-.9-.3-1.7-.6-2.5l-.4-.9c-.1-.1 0-.2.1-.3h.3l.5.9c.4.9.7 1.8.8 2.7.1.6.1 1.3.1 1.9 0 .7-.1 1.4-.2 2.1-.3 1.5-.8 2.9-1.5 4.2l-.5 1c-.1.3-.2.5-.2.8 0 .6.2 1.2.5 1.7s.8.9 1.3 1.2l.7.4.8.2c.8.2 1.7.2 2.5 0l.7-.2h.2c.2 0 .4.2.4.4 0 .1 0 .1-.1.2l-.1.1z"/></g><path class="st11" d="M730.5 207s-31.7-38.2-73.1-44.4c-25.1-3.7-38.1 0-57.4 16.4-13.5 11.5-45.1 65.1-43 86.7S730.5 207 730.5 207z"/></g><defs><path id="SVGID_15_" d="M728.8 166.8s5.5 21.2-.8 33.8-21.2 19.2-21.2 19.2 8.5 32.7 2.5 51-25.2 73-25.2 73-37.6 54.4-1.1 67.8c34.1 12.5 50.2 4.3 60 0s60.3-35.6 60.3-35.6-19.6-5.1-19.6-31.8 15.4-29.9 15.4-29.9l-25.4 9s13.7-50.8 20-57.1 20.6-20.7 24.6-32.5-22.8-40.4-22.8-49.8l-5-1.5s6.5 26.7-12.8 22.5-34.9-29.2-34.9-34l-14-4.1z"/></defs><clipPath id="SVGID_16_"><use xlink:href="#SVGID_15_" overflow="visible"/></clipPath><g class="st29"><path class="st18" d="M661.7 121.2h184.7V463H661.7z"/><path class="st19" d="M792.6 351.3s-48.3 23.9-80.9 25c-27.5.9-36-2.4-36-21.4L647 393l49 49.3 92.1-24 27.1-41.3-22.6-25.7z"/></g><defs><path id="SVGID_17_" d="M819.1 106h3.6c3.6 0 6.5-2.9 6.5-6.5v-.4c-2-27.4-6.7-66.7-18.1-80.1-15.4-18-45-13.6-53.8-11s-44.2 12-39.7 57 24.2 59.4 26.7 69.5 2.3 25 2.3 40.3c0 0 3.1 32.2 26.8 32.2s13.6-28.2 13.6-28.2l3.6-28.3c7.3-2.6 13.9-6.7 19.4-12.1 8.4-8.5 11.9-20.8 9.1-32.4z"/></defs><clipPath id="SVGID_18_"><use xlink:href="#SVGID_17_" overflow="visible"/></clipPath><g class="st30"><path class="st10" d="M842.2 226.9l-142.5-8.5V-12.7l142.5 8.5z"/><path class="st26" d="M798.1 148.4s-12.4 5.6-28.2 2.5c2.6 25.2 20.5 43.3 20.5 43.3l7.7-45.8zM780.8 17.1s-52.8 66.3-36.5 94.3-10.3 51.2-10.3 51.2L693 60l87.8-42.9z"/><path class="st31" d="M737.5 87.8s22.4-20.5 28.6-41.3c0 0 35.9-14 46.1-29.5 0 0-14.9-19.8-52.7-11.1-30 6.9-52.4 32-48.6 56 5 31.8 19.9 59.3 19.9 59.3s-10.8-34.9-4.6-48.8c2.5-5.6 18.1-8.5 18.1-16.8-1.5 10.9-3.8 21.6-6.8 32.2z"/><path class="st11" d="M832 106.3h-21.9s10.3 3.7 6.2 24.8l15.7-24.8z"/></g><ellipse class="ghost-girl-eye ghost-girl-eye__left" cx="811.1" cy="71.4" rx="3.4" ry="5.6"/>
<ellipse class="ghost-girl-eye ghost-girl-eye__right" cx="775.9" cy="68.7" rx="3.7" ry="6.6"/><path class="ghost-girl-face" d="M806.7 119.6s-17.3-11.1-26.7-7.5c-5.2 2-6.8 5.5-6.8 10.4s4.2 8.6 9.8 8.6 17.2-5 23.7-11.5zM773.4 52.6l2.2-1.5 1.1-.7 1.2-.7 2.7-1.5 2.7-1.5 1.2-.7 1.1-.6.9-.5.7-.4.7-.3c.2 0 .3.1.3.3v.1l-.4.6-.5.7-.8.9c-1.4 1.4-3 2.6-4.8 3.6l-2.9 1.3-1.4.5-1.3.4c-.9.2-1.8.4-2.7.5-.1 0-.3-.1-.3-.2 0-.2.1-.3.3-.3zM807.3 45l1.2 2.1 1.2 2.1.7 1.2.7 1.2.8 1.1.8 1.1.8 1 .7.9.6.7.5.5.5.5c.1.1.1.2 0 .3h-.2l-.6-.2-.7-.3-.9-.5-1-.7-1-.9-1-1.1-.9-1.2-.8-1.3-.6-1.3c-.4-.8-.7-1.6-.9-2.4-.2-.8-.4-1.7-.4-2.5 0-.2.1-.3.3-.3h.2z"/><g><defs><path id="SVGID_19_" d="M683.4 344.8c13.4-12.3 36.7-27.4 67.6-25.8 7.8.3 15.5 1.7 22.9 4.3 1.8-6.4 13.9-50.5 19.8-56.3s23.3-20 27.3-31.8-22.9-43.3-22.9-52.7l-10.7-2.5s8.1 25.2-11.2 21-32.3-28.6-32.3-33.4l-17.9-5.1s6.3 23.9 0 36.5-21.7 19.5-21.7 19.5 8.7 33.1 2.7 51.4c-5.1 15.7-19.5 61.5-23.6 74.9z"/></defs><clipPath id="SVGID_20_"><use xlink:href="#SVGID_19_" overflow="visible"/></clipPath><g class="st32"><path class="st33" d="M665.9 125.2h173.4v237.2H665.9z"/><path class="st34" d="M712.4 187.7s31.9 38.3 59.5 44.3 48.5-4.8 48.5-4.8l9 4.8-50 140.5-127.9-3.7 60.9-181.1z"/><path class="st35" d="M818.7 240.6s-13.2 23.9-66.1 23.1c0 0 40.4 14.9 62.6 2.1 22.2-12.8 3.5-25.2 3.5-25.2z"/></g></g><path class="st36" d="M796.8 314.9l1.5-.6-1.5.6z"/><path class="st37" d="M731.7 94.8c0 5-13-2.2-12.5-19 .2-7.8 6.8-8.8 10.8-8.2 2.2.4 3.7 2.4 3.5 4.6-.6 5.7-1.8 16.6-1.8 22.6z"/><ellipse transform="rotate(-85.2 731.828 78.892)" class="st38" cx="731.8" cy="78.9" rx="4.9" ry="4.5"/><g class="st39"><path class="st7" d="M699.9 66.6l-.7.3c-.6.3-1.2.7-1.7 1.1-.8.6-1.5 1.4-2.1 2.2-.8 1.1-1.5 2.2-2 3.4-.6 1.5-1.1 3-1.5 4.5-.4 1.7-.8 3.4-1.1 5.4s-.4 2-.6 3.1-.5 2.1-.8 3.2-1.3 4.2-2 6.3c-1.5 4.1-3.5 8-5.9 11.7-1.1 1.7-2.3 3.4-3.6 4.9-1.2 1.4-2.4 2.7-3.8 3.9-1.2 1-2.4 1.9-3.7 2.7-1 .6-2.1 1.1-3.2 1.6l-1.2.4-.9.3-.8.2c-.2 0-.3-.2-.3-.3 0-.1 0-.1.1-.2l.7-.4 1.8-1.2c.9-.6 1.7-1.3 2.5-2.1 1-1 2-2 2.9-3.1 1.1-1.3 2-2.7 2.9-4.1.9-1.5 1.9-3.1 2.8-4.9 1.8-3.6 3.4-7.4 4.7-11.3.7-2 1.2-4 1.8-6l.7-3c.2-1 .4-1.9.6-2.9.4-2 1-4.1 1.7-6 .7-1.8 1.6-3.5 2.7-5 1-1.4 2.1-2.5 3.5-3.5 1-.8 2.2-1.3 3.4-1.7.8-.2 1.6-.3 2.4-.3h.9c.2 0 .3.2.2.4l-.2.2-.2.2z"/></g><g class="st39"><path class="st7" d="M728.7 38.4l.3-.7 1.1-1.9c3.2-5.3 7.2-10 11.9-14.1 1.6-1.3 3.3-2.6 5-3.7l2.7-1.7 2.9-1.5 3-1.2.4-.2h.4l.7-.2 1.5-.5c2-.6 4-1.1 6-1.5 1.9-.4 3.8-.6 5.7-.8l5.2-.2h2.3l2.1.2 3.3.5 2.1.5.6.2h.2c.6.4.8 1.2.4 1.8-.2.4-.6.6-1 .6h-.8l-2-.3-3.1-.2h-4.1l-4.8.4-5.3.9-5.6 1.4-1.5.5-.7.2h-.7l-2.7 1.1-2.6 1.3-2.5 1.5c-1.6 1-3.2 2.1-4.7 3.3-2.7 2.1-5.2 4.5-7.5 7.1l-2.7 3.1-2 2.5-1.2 1.6-.4.6c-.3.5-1 .6-1.5.3s-.6-.9-.4-1.4v.5z"/></g><g class="st39"><path class="st7" d="M763.1 36.6v1.6c-.1 1.3-.2 2.7-.5 4-.3 1.9-.8 3.7-1.4 5.5-.3 1-.7 2-1.1 3l-1.2 3.1-1.4 3c-.5 1-1 1.9-1.5 2.8l-1.5 2.6-1.4 2.3-1.3 1.9-1.1 1.4-.9 1.2c-.2.2-.5.1-.7-.1-.1-.1-.1-.3-.1-.4l.6-1.4.8-1.5.9-2 1.1-2.4 1.2-2.7 1.2-2.9 1.2-3c.4-1 1.5-4 2.1-5.9l1-2.7.9-2.5.8-2.1.6-1.6.6-1.4c.2-.3.5-.4.8-.2.2.1.3.2.3.4z"/>
</g></g></svg>
