<svg xmlns="http://www.w3.org/2000/svg" xmlns:xlink="http://www.w3.org/1999/xlink" width="1200" height="410" viewBox="0 0 1200 410" preserveAspectRatio="xMidYMax">
<style>.st0{fill:#fff}.st1{clip-path:url(#SVGID_2_)}.st2{fill:#f0c090}.st3{fill:#d9b17d}.st4{fill:#d1ab78}.st5{clip-path:url(#SVGID_4_)}.st6{fill:#f7d09e}.st7{fill:#f7dbb4}.st8{fill:#f0b890}.st9{fill:#e6be8a}.st10{fill:#cfaa7c}.st11{fill:#876c44}.st12{clip-path:url(#SVGID_6_)}.st13{fill:#e1eff5}.st14{fill:#c9e6f5}.st15{fill:#db9f7e}.st16{fill:#64cf00}.st17{fill:#50a600}.st18{clip-path:url(#SVGID_8_)}.st19{fill:#f5be94}.st20{fill:#c47e59}.st21{opacity:.8;fill:#c77e57;enable-background:new}.st22{fill:#f5cd9d}.st23{clip-path:url(#SVGID_10_)}.st24{fill:#71787d}.st25{fill:#565a5e}.st26{fill:#868d94}.st27{fill:#dec19b}.st28{fill:#868e96}.st29{fill:#cad6e3}.st30{fill:#ced4db}.st31{opacity:.45;fill:none;stroke:#949da6;stroke-width:4;stroke-linecap:round;stroke-miterlimit:10;enable-background:new}.st32{fill:#bad7eb}.st33{display:none;fill:none;stroke:#fff;stroke-width:2;stroke-miterlimit:10}.st34{fill:#a1c9db}.st35{fill:#7ba1b5}.st36{fill:#e8f2f7}.st37{display:none;fill:none;stroke:#fff;stroke-miterlimit:10}.st38{fill:#e3f2fa}.st39{opacity:.45}.st40{fill:#949da6}.st41,.st42{fill:none;stroke:#fff;stroke-width:4;stroke-linecap:round;stroke-miterlimit:10}.st42{opacity:.15;stroke:#000;stroke-width:2;enable-background:new}.st43{stroke-width:1.5}.st43,.st44{opacity:.15;fill:none;stroke:#000;stroke-linecap:round;stroke-miterlimit:10;enable-background:new}</style><g id="Man"><circle class="st0" cx="319.7" cy="258" r="16.7"/><g class="bathtub-arm"><defs><path id="SVGID_1_" d="M461.4 90.4c-1.3-11.5-6.5-22.2-14.8-30.3-15.9-14.8-39.8-16.5-60.4-13.9-25 3.2-49 10.2-72.6 18.7l-1.1.4-19 6.8c-2.8.6-12.9 1.6-22.1 5.5-5.5 2.5-10.3 6.2-14 11-.8 1.1-.9 2.5-.3 3.7l8.7 17.2s12.3.5 21.9-5c5.5-3.1 10.8-6.7 15.8-10.7 0 0 9.9-6.3 16.1-8.4 23.1-8 47.1-15.3 71.6-17.2 10.7-.8 22.1-.6 32.2 3.7 8.4 3.7 14.1 11.7 15 20.8.5 5.8-1.2 12.3-4.1 18.4-3.1 6.2-6.9 12-11.4 17.3-4.2 5-8.7 9.8-13.5 14.3-9.1 8.4-18.8 16.1-29.1 23.1-.7.5-3.2 1.7-3.3 2.5s.5.8.6 1.1c.6 1.1 1.3 2.1 2 3.1l10.4 16.4c1-.6 2-1.2 2.9-1.9 11.8-8 22.9-17 33.1-26.9 5.5-5.2 10.6-10.8 15.4-16.7 5.6-6.9 10.4-14.4 14.2-22.4 4.3-9.4 6.9-20.2 5.8-30.6z"/></defs><clipPath id="SVGID_2_"><use xlink:href="#SVGID_1_" overflow="visible"/></clipPath><g class="st1"><path class="st2" d="M209.8 15.9h265.7v191H209.8z"/><path class="st3" d="M388 166.9s37.9-9.4 62.6-49.8c4.9-8.1 11.6-25.7 9.9-35.7 0 0 12.6 13.3-3.8 53.3-4.1 10-53.5 55.2-53.5 55.2l-15.2-23zM302.5 96.1s4.9-8 2.4-14.7 7.6-10.5 7.6-10.5 8.3-3.7 9.6-10.2 10.6-5.5 10.6-5.5l1 31.3-31.2 9.6zM429.5 45.3s-7.5 17.3.3 30.8c0 0-25.7-.2-26.5-1s7.1-37.1 7.1-37.1l19.1 7.3z"/></g><path class="st4" d="M267.8 85.9s1.9-3.8 8.1-5.9 13.2-.6 13.2-.6l4.5 20.9-22.8 3.4-3-17.8z"/></g><defs><path id="SVGID_3_" d="M410.7 35.7s13.1 44.2 6.9 68.6c-.1.4-.4.6-.8.6l-6.3-.3c-1.5 6.5-3.3 12.9-5.5 19.2-2.3 6.5-13.2 8.4-13.2 8.4s-4.7 5-4.2 16.9 1.6 12.4 6.9 18.5 23.3 36.7 25.5 65.4 3 39.6 3 39.6H319.3s-5.5-48.8 6.3-77.1 13.4-32.4 18.9-42.2 7.5-25.7 3.5-31.5-11.5-16.8-14.4-34.1C331 72.4 331 54.1 331 54.1s45.6-35.3 79.7-18.4z"/></defs><clipPath id="SVGID_4_"><use xlink:href="#SVGID_3_" overflow="visible"/></clipPath><g class="st5"><path class="st6" d="M291.3 3.6h155.1v292.2H291.3z"/><path class="st7" d="M377.9 142.2s28.6 34.8 28.6 135.3h27.7l-22.3-107.7-34-27.6z"/><path class="st8" d="M397.3 130.2c-7.1 3.2-14.6 5.4-22.3 6.5 0 0 13 25.2 21.6 32.9l.5.4c8.5 7.2.2-39.8.2-39.8z"/><path class="st9" d="M380.8 47.5s-31.6 21.1-29.9 59c.1 2.2.5 4.3 1.3 6.4l6 16.4c.6 1.5.8 3.2.6 4.8 0 0 2.1 30-8.1 42.9-2.4 3.1-4.1 17.8-4.2 19.2-2.1 18.5-2 44.1-3.9 78.6h-40.5l12.4-232.9 66.3-7.6v13.2z"/><path class="st10" d="M325.1 69.5s13.2-.2 41.2-10.2c19.9-7.1 51.2-4.5 51.2-4.5l-1.2-13-50.5-.5-40.7 16.8v11.4z"/><path class="st11" d="M326.3 54.9l4.7 52.7s9.5-15.1 9.5-27.2-3.4-11.8 5-14.2c5.2-1.5 1 8.5 4.3 7.7s7.3-8 10.2-10.9c18.3-18.3 23-15.4 22-26.2s-49.4-7.6-55.7 18.1z"/><path class="st7" d="M415.2 54.4s2.8 26.5-2 50.7l7.3 4.2s3.8-37.9-5.3-54.9zM391.7 132.2s7.4-3.2 10.2-9.8c1.9-4.8 3.4-9.8 4.5-14.8l4.1-3v22.7l-13 7.2-7.2-3.2"/></g><ellipse id="open_eye" transform="rotate(-82.6 393.837 74.14)" cx="393.8" cy="74.1" rx="4.8" ry="2.5"/><ellipse id="blinked_eye" transform="rotate(-82.6 393.837 74.14)" cx="393.8" cy="74.1" rx=".5" ry="2.5"/><defs><path id="SVGID_5_" d="M322.5 57.5c.4-5 12-7.8 2.3-11-7.5-2.5-7.1-10.5-5.3-13.9s9.1-14.1 17.2-19.1 19.3-10.4 31.2-5c0 0 15.7-6.3 27.8-4.7s23.6 4.1 25.7 21.7c.9 7.3-.1 13.4-3.6 14.4s-3.7 4.1-3.7 4.1 8.7-1.9 10 2.5c.8 2.9-1.1 3.9-6.6 3.9-2.1 0-6.7.1-9-2.3-4 2.2-8.8 2.3-12.9.2 0 0-5.3 7-14.1 2.1 0 0-4.8 6.7-12.9.7 0 0-7 6-13.4 1.7 0 0-7.7 7.2-15.5 1.5-1.7 2.6-4.2 4.7-7.1 6-3.6 1.6-10.5 2.1-10.1-2.8z"/></defs><clipPath id="SVGID_6_"><use xlink:href="#SVGID_5_" overflow="visible"/></clipPath><g class="st12"><path class="st0" d="M302.9-1.2H441v66H302.9z"/><path class="st13" d="M325.1 12.1s-7.5 29.7 26.1 31h2.3c36.2 0-42.5 7.7-42.5 7.7s-13.7-22.7 14.1-38.7zM425.5 7.6s2.5 34.3-45.7 35.6l34.1.8s39.4-20.4 11.6-36.4z"/><path class="st14" d="M320 54.9c3.4.4 6.9.1 10.2-.8 5.2-1.6 9.6-2.8 15.3-2.8s10.9-2.8 12.6-2.8 2.6 2.5 5.9 1.3 8.3-2.3 10.5-1 4-2 5.2-2 3.4 2.4 7.2 2.4 5.5-3.5 7.7-3.5 6 1.8 7.3 1.8 4.2-1.6 6.8-1.6 4.2 1.6 4.8 1.6 8.7.9 11-2.7l2 7.2-111.3 13.5 4.8-10.6z"/></g><path class="st15" d="M383.7 189.8s5.2 37 2 85h6s3.8-48-8-85z"/><path class="st7" d="M383.7 189.8c-1.4 28.8-4.3 57.5-8.9 85.9h11.1s6.6-47.2-2.2-85.9z"/><circle class="st0" cx="337.8" cy="202.3" r="5.2"/><g class="bathtub-brush"><path class="st16" d="M333.7 190l-4.6 2.3c-.5.3-1.2.1-1.5-.5l-62.1-126c-.2-.4-.1-.9.2-1.2.7-.8 1.6-1.4 2.5-1.8.9-.4 1.8-.6 2.8-.8.5-.1 1 .2 1.2.6l62.1 126c.2.6-.1 1.2-.6 1.4z"/><path class="st0" d="M350 185.3l-4.9-10.6c-.2-.6-.9-.8-1.4-.6-.2.1-.3.2-.5.4h-.1c-.3.5-1 .6-1.5.3s-.6-.9-.4-1.4c.6-1.7.8-3.4.7-5.2 0-.1 0-.3-.1-.4l-2.6-5.5c-.3-.6-.9-.8-1.5-.5-.1.1-.2.1-.3.2-.8.8-1.7 1.5-2.7 2.1 1.7-1.6 2.6-3.8 2.5-6.1 0-.1 0-.3-.1-.4l-1.4-3c-1.2-2.3-3.9-3.3-6.3-2.4-.3.1-.5.3-.6.5-1.9 3.6-3.6 2.9-8.8 5.8-2.9 1.7-4 5.3-2.6 8.3l15 30.4c1.2 2.5 4.2 3.5 6.7 2.3 12.7-3.7 12.2-11.7 10.9-14.2z"/><path class="st16" d="M340.3 199.1l-9.1 4.5c-2.5 1.2-4.9-.4-6.1-2.9l-15.5-31.3c-1.1-2.2-.4-4.9 1.6-6.3 4.6-2.9 4.1-12.7 5.5-9.9s2.6 5.3 4.6 4.4 5.5.3 6.7 2.7l15 30.5c1.6 3 .4 6.7-2.6 8.2 0 .1-.1.1-.1.1z"/><path class="st17" d="M329.9 191.9l-.8.4c-.5.2-1.1.1-1.4-.4-2.9-4.8-17.1-28.4-16.5-28.7s.5-3.9.4-4.2L266 66.5c-.2-.6 0-1.2.6-1.5h.1l.6-.2c.5-.2 1.1 0 1.4.5l45.6 92.6c.7 1.5 2.3 2.7 3.9 1.8s10.3 25.6 12.3 30.8c.2.6-.1 1.2-.6 1.4z"/><path class="st17" d="M312.2 162.8l5.7-2.8c3-1.5 6.7-.2 8.2 2.8l14.5 29.6c1.5 3 .2 6.7-2.8 8.2l-5.7 2.8c-3 1.5-6.7.2-8.2-2.8L309.4 171c-1.5-3.1-.2-6.7 2.8-8.2z"/><defs><path id="SVGID_7_" d="M264.7 84.7c2.9-1 9.2-2.3 11.5 0s7.9 12.9 8.1 14.7c.4 4.8-2.7 9.3-7.4 10.6-3.6 1.2-7.5 1.2-11.1 0-3.3-1.2-7.4-12.9-9-17.7-.4-1.2 0-2.5 1-3.3 2-1.8 4.4-3.3 6.9-4.3z"/></defs><clipPath id="SVGID_8_"><use xlink:href="#SVGID_7_" overflow="visible"/></clipPath><g class="st18"><path class="st19" d="M245.5 76.1H294v43.8h-48.5z"/><path class="st4" d="M264.8 81.9c-1 13.5 4.7 25.2 18.7 34.9l-27.4-2.8-6.3-21.9 15-10.2z"/><path class="st20" d="M261 93.9h.8l2.2-.2c2.2-.4 4.4-1 6.4-1.9l1.6-.8 1.5-.9 1.3-1 1.1-1 1.5-1.6.5-.6c.1-.2.5-.3.7-.2.2.1.3.5.2.7v.2l-.4.5c-.5.6-1 1.2-1.5 1.7-.8.7-1.6 1.4-2.5 2l-1.6.9-1.7.8-1.8.6-1.7.5c-1.1.3-2.1.4-3.2.5h-3.1c-.1 0-.1-.1-.1-.2h-.2zM263.6 99.1c1.1.2 2.1.2 3.2.1l1.5-.2 1.7-.3 1.7-.5 1.7-.7 1.7-.9 1.5-1c.9-.6 1.7-1.3 2.5-2.1l1.5-1.7.4-.5v-.2c.2-.2.5-.1.7.1.1.1.1.3.1.4v.2l-.4.6c-.5.6-1 1.2-1.6 1.8-.8.8-1.7 1.5-2.6 2.2l-1.6 1-1.8.9-1.9.7-1.8.5c-1.1.2-2.3.3-3.4.3s-2.2-.2-3.2-.5c-.1 0-.1 0-.1-.1v-.1h.2zM266.4 105.3c1.1 0 2.1 0 3.2-.1l3.2-.4c1.2-.2 2.4-.6 3.5-1.1l1.6-.9 1.4-1.1c.8-.7 1.5-1.5 2.2-2.3l1.3-1.8.4-.7c.2-.2.5-.3.7-.1.2.1.3.3.2.5l-.4.8c-.4.7-.8 1.4-1.3 2-.7.9-1.5 1.7-2.4 2.4l-1.6 1.1-1.8.9c-1.2.5-2.4.8-3.7 1l-3.3.3h-3.2c-.1 0-.2-.1-.2-.2v-.1c0-.1.1-.2.2-.2z"/></g><path class="st2" d="M286.6 76.8c-.4-.4-1.1-.4-1.6 0v.1c-1 1.3-2.4 4.6-.5 11.7.7 2.6 2.1 7.8 4.8 10.1.4.4.5.9.2 1.4-2.5 4.1-1 13 1.8 15.7.5.4 1.1.4 1.6-.1.1-.1.1-.1.1-.2 1.1-2.2 3.6-7.5 5.4-11.4s3.8-7.8 4.7-9.7c.2-.4.1-1-.2-1.3l-16.3-16.3z"/></g><path class="st14" d="M334.8 47.5s6.3-10.5 1.8-15-6.3 2.3-2.6 3.6c1.8.6 2.3 7.9.8 11.4zM347.8 45.3s6.3-17.5 1.8-21.9-6.5 2.1-3 3.8 2.6 14.7 1.2 18.1zM406.6 41.8s1.4-7.4 5.3-7.6 2 3.6-.3 2.7-4.3 2.8-5 4.9zM400.5 41.3s-6.3-10.5-1.8-15 6.3 2.3 2.6 3.6c-1.8.7-2.3 8-.8 11.4zM370.4 11.6s-5.2 9.5-4.6 15.9 4.5 14.4 12.4 14.4c0 0-7.2-4.6-8.4-10.8s-.3-19 .6-19.5z"/><ellipse transform="rotate(-5.101 410.786 218.777) scale(.99996)" class="st21" cx="410.8" cy="218.8" rx="1.7" ry="2.8"/><path class="st22" d="M346.6 67.1s-10.1-3.3-10 8.5c.1 9.3 5.9 16.5 7.1 16.5 1.5-.1 2.7-1.5 2.6-3 0-.4-.2-.8-.4-1.2-.9-2.1-1.4-4.3-1.4-6.5-1.1.7-2.6.4-3.3-.7-.7-1.1-.4-2.6.7-3.3.9-.6 2-.5 2.8.1.4-2.8 1-5.5 1.9-8.2.2-.7.2-1.5 0-2.2z"/><circle id="mouth" cx="395.5" cy="113.9" r="1.8"/></g><g class="bathtub-periscope"><defs><path id="SVGID_9_" d="M754.5 311.3L725 296.6c.2-.4 17.5-36.9 28.2-58.8 4.2-8.6 5.1-15.3 3.5-19-2.9-6.6-14.8-8.7-18.9-9.1l7-39.9c3.6.4 33.5 3.7 47.6 29 6.2 11 3.2 27-10 54.1-10.5 21.7-27.7 58.1-27.9 58.4z"/></defs><clipPath id="SVGID_10_"><use xlink:href="#SVGID_9_" overflow="visible"/></clipPath><g class="st23"><path class="st24" d="M698.2 155.5h115.9v177.7H698.2z"/><path class="st25" d="M729.9 199.9s34.7-.2 38.8 16.4-8.3 36.6-15.9 47.3c-4.8 6.8-9.9-6.6-9.9-6.6s9.5-28.5 3.9-22.9l-15.2-17.6-1.7-16.6z"/><path class="st26" d="M737.1 171.1s-2.8 13.7 19.2 16.5c14.4 1.8 26 9.8 29.6 20.8 7.1 21.7-17.2 62.2-16.3 71.4l43.7-76.4-30.5-41-46.8-7.2 1.1 15.9z"/></g><ellipse transform="rotate(-76.301 741.723 189.573)" class="st24" cx="741.7" cy="189.6" rx="20.4" ry="12"/><ellipse transform="rotate(-76.301 741.723 189.573)" class="st27" cx="741.7" cy="189.6" rx="17" ry="9.9"/><g class="bathtub-periscope__eye"><path class="st0" d="M738.9 197.9c5.5 1.3 11.6-4.3 11.6-4.3s-2.5-8.5-8-10.2-9 3.2-9 3.2-2.3 9.5 5.4 11.3z"/><ellipse transform="rotate(-76.301 739.107 189.599)" cx="739.1" cy="189.6" rx="4.7" ry="2.9"/></g><ellipse transform="matrix(.04442 -.999 .999 .04442 555.246 918.702)" class="st0" cx="757.9" cy="169.1" rx="6.3" ry="6.3"/><ellipse transform="matrix(.04442 -.999 .999 .04442 575.53 940.91)" class="st0" cx="779.6" cy="169.6" rx="4.4" ry="4.4"/><ellipse transform="matrix(.04442 -.999 .999 .04442 546.065 914.557)" class="st0" cx="751.1" cy="171.8" rx="4.4" ry="6.6"/><path class="bathtub-periscope__drip1 st0" d="M781.1 188.8c-.1 2.5-2.2 4.4-4.7 4.3-2.5-.1-4.4-2.2-4.3-4.7.1-2.4 3-22.2 5.4-22.1s3.7 20 3.6 22.5z"/><ellipse transform="matrix(.04442 -.999 .999 .04442 563.897 937.627)" class="st0" cx="772.1" cy="174" rx="8.3" ry="8.3"/><ellipse transform="matrix(.04442 -.999 .999 .04442 557.146 936.055)" class="st0" cx="767.9" cy="176.8" rx="8.2" ry="17"/><ellipse transform="matrix(.04442 -.999 .999 .04442 566.772 928.702)" class="st0" cx="768.8" cy="168.1" rx="8.6" ry="8.6"/></g><g id="Bath"><path class="st0" d="M871 238.4s-8 25.8-26.6 31.1h37.7s-4.8-8.7 0-28.1l-11.1-3z"/><path class="st28" d="M914.8 201.2h10.1v16.5h-10.1z"/><path class="st29" d="M926.9 279.8l-10.5-.8c-1.3-.1-2.3-1.2-2.3-2.5l-.7-41.3c.3-6-2.7-10-8.6-8.7s-17.3 3.5-21.1 19c-.2.9-.9 1.5-1.7 1.8-4.2 1.4-8.8 1.6-13.1.6-1.4-.4-2.2-1.8-1.8-3.2v-.1c1.5-4.3 5-13.2 9.9-19.6 14.5-19 44.8-14.1 47.8-13.8s5 4.4 4.9 7.9v58.2c0 1.4-1.1 2.5-2.5 2.5h-.3z"/><path class="st30" d="M929.1 207.1h-18.9l-2.5-20.5h23.9z"/><path class="st0" d="M874.4 239.8v-.6c.1-.4.2-1 .4-1.7s.5-1.6.9-2.6l.6-1.6.8-1.7c.6-1.2 1.3-2.4 2.1-3.6l.6-1 .7-.9c.5-.7 1-1.3 1.5-1.9 1.1-1.3 2.4-2.4 3.7-3.5l2.3-1.6 2.3-1.4c.8-.5 1.6-.9 2.4-1.2.8-.4 1.6-.7 2.4-1l2.5-.8 2.4-.6 4.6-.8 4.2-.4c2.1-.1 4.2 0 6.3.3l1.7.4.6.2c.3.2.4.6.2 1-.1.2-.3.3-.5.3h-4.8l-3.3.3-3.9.7-4.3 1-2.3.6-2.2.8c-.8.3-1.5.6-2.2.9l-2.1 1.1-2.1 1.2-1.9 1.4-1.8 1.5c-.6.5-1.1 1.1-1.7 1.6l-1.5 1.6-.7.8-.7.8c-.9 1.1-1.6 2.2-2.3 3.2l-.9 1.5-.8 1.4-1.2 2.3-.7 1.5-.2.6c-.1.3-.4.4-.6.3-.3-.1-.4-.4-.4-.6l-.1.2z"/><path class="st31" d="M925.5 218.7v52.1"/><path class="st32" d="M883.8 410c26.8-35 65.4-95.4 53.3-139.4H253.4c-3.8 54.8 16.7 98.8 45 139.4h585.4z"/><path class="st0 bathtub-water bathtub-water__3" d="M674.2 277.8s4-16.7 23.5-16.7 23.5 13 23.5 13 0-18.8 24-20.8 26.5 22.4 26.5 22.4 3.5-9.6 21-11.6 22.5 13.7 22.5 13.7 9.9-16.8 30-16.8c33.9 0 33.9 16.8 33.9 16.8H674.2z"/><circle class="st0 bathtub-water bathtub-water__2" cx="286.4" cy="267.2" r="20.1"/><circle class="st0" cx="317.5" cy="267.2" r="14.1"/><ellipse class="st0" cx="451.8" cy="265.9" rx="30.4" ry="21.8"/><ellipse class="st0 bathtub-water bathtub-water__1" cx="490.3" cy="274" rx="31.8" ry="22.9"/><circle class="st33 bathtub-bubble bathtub-bubble__3" cx="331.6" cy="224" r="8.3"/><path class="st0" d="M336.6 271.1s11.4-20 31.4-20 25.6 17.7 25.6 17.7 8.4-9.3 15-9.3 16.4 10 16.4 11.6h-88.4zM513 272.9s11.4-20 31.4-20 25.6 17.6 25.6 17.6 8.4-9.3 15-9.3 16.3 10.1 16.3 11.7H513z"/><path class="st34" d="M253.4 271.8c-.7 10.6-.5 21.2.6 31.8h684.3c1.7-11.1 1.6-21.9-1.1-31.8H253.4z"/><path class="st35" d="M253.4 272.7c-.4 6.3-.5 12.4-.3 18.4h686.3c.1-6.2-.7-12.4-2.3-18.4H253.4z"/><path class="st36" d="M244.2 285h724.3s2.3-20.6-16.6-20.6H261.2s-17-1-17 20.6z"/><circle class="st33 bathtub-bubble bathtub-bubble__2" cx="311.8" cy="207.5" r="5.4"/><circle class="st37 bathtub-bubble bathtub-bubble__1" cx="265.1" cy="242.6" r="2.7"/><circle class="st33 bathtub-bubble bathtub-bubble__4" cx="856.3" cy="246.7" r="5.4"/><g class="bathtub-periscope__drip2"><path class="st38" d="M341.9 370.3c0 9-2.4 11.7-5.4 11.7s-5.4-2.6-5.4-11.7 2.4-21 5.4-21 5.4 11.9 5.4 21z"/><path class="st0" d="M338.9 360.3c0 4.1-1.1 5.3-2.4 5.3s-2.4-1.2-2.4-5.3 1.1-9.5 2.4-9.5 2.4 5.4 2.4 9.5z"/></g><g class="st39"><path class="st40" d="M901 224.8c.9-.7 1.9-1.3 3-1.6l1.6-.4h2.9l1 .2 2 .8h.5l.4.3.8.6.8.7.7.8c.4.5.7 1 1 1.6.2.5.4 1.1.5 1.6.2.8.3 1.7.2 2.5 0 .3-.1.5-.1.7v.3c0 .2-.2.3-.3.3-.2 0-.4-.2-.4-.3v-.8l-.3-.9-.5-1.1c-.4-.9-.9-1.7-1.6-2.4l-.6-.5-.6-.5-.3-.2-.4-.2-.4-.2h-.3l-1.6-.6-1.6-.4c-1-.1-1.9-.2-2.9-.1l-2.2.3h-.8c-.2.1-.4 0-.5-.2-.1-.2 0-.4.1-.5l-.1.2z"/></g><path class="st41" d="M251 274.7h690.3"/><path class="st42" d="M919.4 188.5v16.6"/><path class="st43" d="M924.8 188.5l-.7 16.6M914.5 188.5l.4 16.6"/><path class="st44" d="M910.5 188.5l1.1 16.6M929.1 188.5l-1.5 16.6"/><circle class="st0" cx="333.1" cy="219.9" r="1.9"/><circle class="st0" cx="313.2" cy="205.9" r="1.4"/><circle class="st0" cx="857.2" cy="244.3" r="1.1"/><path class="st38" d="M358.9 267.9c-12.4 8.2-11 70.5-22.4 70.5s-3.3-61.7-18.9-70.5c-7.1-4 9.2-14.8 20.6-14.8s27.5 10.3 20.7 14.8z"/><path class="st0" d="M352.9 263.6c-8.8 5.8-7.8 49.9-15.9 49.9s-2.4-43.7-13.4-49.9c-5-2.9 6.5-10.5 14.6-10.5s19.5 7.3 14.7 10.5z"/></g>
</svg>
