<svg width="16" height="14" viewBox="0 0 16 14" xmlns="http://www.w3.org/2000/svg" xmlns:xlink="http://www.w3.org/1999/xlink"><use xlink:href="#path0_fill" transform="translate(0 -1)" fill="#0EA3F2"/><defs><path id="path0_fill" d="M14.344 4.75A7.234 7.234 0 0 0 16 3.031c-.625.281-1.25.469-1.875.531.688-.437 1.188-1.03 1.438-1.812-.657.375-1.344.656-2.094.781a3.787 3.787 0 0 0-1.094-.75 3.094 3.094 0 0 0-1.313-.281c-.593 0-1.124.156-1.624.438A3.41 3.41 0 0 0 8.25 3.155c-.313.5-.438 1.063-.438 1.625 0 .25 0 .5.063.75-1.344-.062-2.594-.375-3.781-1a8.645 8.645 0 0 1-2.969-2.437A3.25 3.25 0 0 0 .656 3.75c0 .563.125 1.094.406 1.563.25.5.625.875 1.063 1.187a2.698 2.698 0 0 1-1.469-.438v.063c0 .781.25 1.469.75 2.063.5.624 1.125 1 1.875 1.156a4.395 4.395 0 0 1-.875.094c-.187 0-.406 0-.594-.032.188.656.563 1.188 1.125 1.625.563.438 1.188.625 1.938.625-1.219.938-2.594 1.406-4.094 1.406-.312 0-.562 0-.781-.03 1.5 1 3.188 1.468 5.031 1.468 1.907 0 3.594-.469 5.094-1.469A8.862 8.862 0 0 0 13.281 9.5c.719-1.375 1.094-2.844 1.094-4.344 0-.187-.031-.312-.031-.406z"/></defs></svg>