<svg id="_x33_0_Gift" enable-background="new 0 0 64 64" height="512" viewBox="0 0 64 64" width="512" xmlns="http://www.w3.org/2000/svg"><circle cx="45" cy="33" r="1"/><circle cx="45" cy="27" r="1"/><path d="m48 42.427v-5.239c1.79-1.039 3-2.973 3-5.188v-21.224c1.137-1.326 2-2.93 2-4.776 0-2.415-1.768-5-4.4-5-1.523 0-2.821.888-3.6 1.578-.779-.69-2.077-1.578-3.6-1.578-2.632 0-4.4 2.585-4.4 5 0 1.846.863 3.45 2 4.776v21.224c0 2.215 1.21 4.149 3 5.189v5.238c-4.61 1.31-8 5.549-8 10.574v5c0 2.757 2.243 5 5 5h1v-8c0-.551.449-1 1-1s1 .449 1 1v8h6v-8c0-.551.449-1 1-1s1 .449 1 1v8h1c2.757 0 5-2.243 5-5v-5c0-5.025-3.39-9.264-8-10.574zm-7-29.753c1.748 1.375 3.438 2.169 3.584 2.236l.416.19.416-.19c.146-.067 1.836-.861 3.584-2.236v5.326h-8zm0 7.326h8v2h-8zm.4-17c1.225 0 2.453 1.177 2.821 1.627l.776.958.78-.955c.37-.453 1.598-1.63 2.823-1.63 1.414 0 2.4 1.581 2.4 3 0 1.52-.875 2.884-1.978 4h-.022v.022c-1.417 1.426-3.203 2.445-4 2.861-.797-.416-2.583-1.435-4-2.861v-.022h-.022c-1.103-1.116-1.978-2.48-1.978-4 0-1.419.986-3 2.4-3zm-.4 21h8v8c0 2.206-1.794 4-4 4s-4-1.794-4-4zm3 13.91c.326.055.658.09 1 .09s.674-.035 1-.09v4.141c-.33-.03-.662-.051-1-.051-.337 0-.67.021-1 .051zm10 20.09c0 1.304-.836 2.416-2 2.829v-5.829c0-1.654-1.346-3-3-3s-3 1.346-3 3v6h-2v-6c0-1.654-1.346-3-3-3s-3 1.346-3 3v5.829c-1.164-.413-2-1.525-2-2.829v-5c0-4.962 4.038-9 9-9s9 4.038 9 9z"/><circle cx="19" cy="33" r="1"/><circle cx="19" cy="27" r="1"/><path d="m22 42.388v-5.2c1.79-1.039 3-2.973 3-5.188v-21.224c1.137-1.326 2-2.93 2-4.776 0-2.415-1.768-5-4.4-5-1.523 0-2.821.888-3.6 1.578-.779-.69-2.077-1.578-3.6-1.578-2.632 0-4.4 2.585-4.4 5 0 1.846.863 3.45 2 4.776v21.224c0 2.215 1.21 4.149 3 5.189v5.199c-4.61 1.191-8 5.044-8 9.612 0 6.58 4.42 11 11 11s11-4.42 11-11c0-4.568-3.39-8.421-8-9.612zm-7-29.714c1.748 1.375 3.438 2.169 3.584 2.236l.416.19.416-.19c.146-.067 1.836-.861 3.584-2.236v5.326h-8zm0 7.326h8v2h-8zm.4-17c1.225 0 2.453 1.177 2.821 1.627l.776.958.78-.955c.37-.453 1.598-1.63 2.823-1.63 1.414 0 2.4 1.581 2.4 3 0 1.52-.875 2.884-1.978 4h-.022v.022c-1.417 1.426-3.203 2.445-4 2.861-.797-.416-2.583-1.435-4-2.861v-.022h-.022c-1.103-1.116-1.978-2.48-1.978-4 0-1.419.986-3 2.4-3zm-.4 21h8v8c0 2.206-1.794 4-4 4s-4-1.794-4-4zm3 13.91c.326.055.658.09 1 .09s.674-.035 1-.09v4.136c-.33-.027-.662-.046-1-.046-.337 0-.67.019-1 .046zm1 23.09c-5.467 0-9-3.533-9-9 0-4.411 4.038-8 9-8s9 3.589 9 8c0 5.467-3.533 9-9 9z"/><path d="m19 46c-3.441 0-7 2.244-7 6 0 4.596 3.521 7 7 7s7-2.404 7-7c0-3.756-3.559-6-7-6zm0 11c-2.489 0-5-1.546-5-5 0-2.471 2.595-4 5-4s5 1.529 5 4c0 3.454-2.511 5-5 5z"/></svg>