<svg id="Capa_1" enable-background="new 0 0 512.036 512.036" height="512" viewBox="0 0 512.036 512.036" width="512" xmlns="http://www.w3.org/2000/svg"><path d="m226.49 321.525c3.047 0 6.14-.734 9.015-2.268l9.297-4.958c3.655-1.949 5.038-6.492 3.088-10.147s-6.494-5.038-10.147-3.088l-9.297 4.958c-1.814.967-4.113.415-5.233-1.258-6.229-9.3-8.179-18.791-8.214-18.961-.79-4.057-4.717-6.709-8.774-5.932-4.068.781-6.733 4.711-5.953 8.779.097.504 2.462 12.492 10.477 24.46 3.639 5.433 9.599 8.415 15.741 8.415z"/><path d="m504.49 351.504c-9.223-13.416-24.858-19.961-40.098-18.183 13.924-38.322 15.047-95.111-6.89-139.439 3.908-8.986 6.159-18.697 6.562-28.704.714-17.755.768-35.736.179-53.531 44.963-22.409 47.659-99.684 47.754-103.078.065-2.345-.97-4.586-2.799-6.056s-4.24-2-6.517-1.43l-115.867 28.958c-31.412-1.229-63.243-1.228-94.655 0l-115.87-28.957c-2.278-.57-4.688-.039-6.517 1.43-1.829 1.47-2.864 3.711-2.799 6.056.095 3.394 2.79 80.669 47.754 103.078-.323 9.76-.45 19.575-.381 29.38-9.48 2.507-18.417 5.332-26.791 8.476-1.098-8.211-2.754-18.054-5.225-28.026-13.703-55.248-40.844-66.844-61.199-66.844-20.991 0-33.816 15.469-40.877 28.444-6.465 11.874-11.053 26.307-15.508 40.322-3.288 10.33-6.393 20.087-9.805 27.41-.738 1.586-1.402 2.858-1.978 3.87-2.014-1.58-4.875-4.179-8.617-8.408-3.983-4.498-9.48-7.177-15.478-7.543-5.999-.366-11.781 1.626-16.279 5.61-4.499 3.983-7.177 9.479-7.543 15.477-.366 6 1.626 11.781 5.602 16.271 5.618 6.366 22.712 25.737 44.463 25.737 2.523 0 5.057-.267 7.518-.792 26.41-5.57 35.868-35.294 45.02-64.058 3.789-11.929 7.706-24.264 12.128-32.382 1.205-2.211 2.229-3.681 2.945-4.573 4.631 2.124 11.093 12.999 15.834 31.929 2.277 9.077 4.104 19.801 5.285 31.006.364 3.477.61 6.443.778 8.783-9.818 6.985-18.177 14.749-25.027 23.281-2.593 3.23-2.077 7.951 1.153 10.544 1.385 1.111 3.043 1.652 4.69 1.652 2.196 0 4.372-.96 5.854-2.805 17.013-21.191 45.024-37.286 83.327-47.915.082 2.9.175 5.796.291 8.686.807 20.049 9.028 38.917 23.15 53.127 14.157 14.245 32.981 22.532 53.007 23.334 16.065.643 32.243.964 48.421.964s32.356-.321 48.421-.964c20.025-.802 38.85-9.089 53.007-23.334 2.647-2.663 5.086-5.49 7.308-8.458 7.577 18.967 11.553 41.244 11.318 64.122-.258 25.179-5.613 49.368-14.706 66.718l-106.386 64.667-89.191-21.993c-14.525-3.585-28.583-8.765-41.931-15.44l59.694-42.383c19.408-13.775 25.263-39.821 13.62-60.584-8.21-14.638-23.745-23.731-40.541-23.731-7.906 0-15.748 2.053-22.677 5.938l-97.871 54.863c-8.899-28.02-9.539-52.76-1.88-73.639 1.427-3.889-.569-8.198-4.458-9.624-3.887-1.428-8.198.568-9.624 4.458-9.108 24.827-8.218 53.829 2.624 86.282l-30.896 17.319-71.52 40.61c-2.961 1.681-4.417 5.146-3.548 8.437l33.67 127.48c1.024 3.878 4.92 6.264 8.839 5.415l66.273-14.354 235.512 16.585c1.726.122 3.445.182 5.16.182 17.135 0 33.561-6.032 46.724-17.256l26.51-22.61c3.151-2.688 3.527-7.422.839-10.574-2.689-3.151-7.422-3.527-10.574-.839l-26.509 22.61c-11.469 9.78-26.06 14.584-41.097 13.525l-236.58-16.66c-.708-.049-1.42 0-2.114.151l-60.312 13.063-30.362-114.964 66.461-37.738 142.07-79.64c4.694-2.631 9.999-4.022 15.342-4.022 11.378 0 21.899 6.157 27.458 16.068 7.882 14.057 3.919 31.69-9.22 41.016l-69.55 49.38c-2.084 1.479-3.271 3.918-3.15 6.471.122 2.553 1.534 4.868 3.749 6.144 17.605 10.139 36.539 17.75 56.277 22.623l92.22 22.74c1.938.479 3.986.164 5.691-.873l111.441-67.74c12.513-7.61 28.816-4.117 37.115 7.954 8.049 11.696 5.973 27.465-4.829 36.682l-51.28 43.74c-3.151 2.688-3.527 7.422-.839 10.573s7.422 3.527 10.573.839l51.28-43.741c16.669-14.22 19.872-38.552 7.454-56.595zm-345.731-190.117c-1.271-12.068-3.173-23.201-5.653-33.086-4.99-19.921-14.587-43.668-31.976-43.668-5.16 0-9.775 4.062-14.526 12.782-5.11 9.382-9.249 22.414-13.255 35.028-8.205 25.787-15.955 50.143-33.831 53.914-1.45.309-2.933.465-4.408.465-14.983 0-28.707-15.552-33.225-20.672-1.327-1.498-1.99-3.424-1.868-5.422.122-2 1.015-3.833 2.515-5.161 1.498-1.326 3.423-1.987 5.422-1.868 2 .122 3.833 1.015 5.159 2.513 10.222 11.551 16.742 14.785 20.412 15.464 1.868.346 3.804-.031 5.407-1.057 3.149-2.014 6.381-6.551 9.606-13.48 3.816-8.191 7.063-18.393 10.52-29.255 4.223-13.285 8.59-27.022 14.37-37.637 7.549-13.872 16.611-20.615 27.703-20.615 27.181 0 40.366 30.157 46.64 55.454 2.729 11.015 4.408 21.921 5.419 30.368-5.006 2.286-9.767 4.707-14.295 7.256-.044-.433-.089-.873-.136-1.323zm304.018-66.276c-2.481-13.383-8.327-25.889-17.05-36.393 16.666-5.611 33.957-7.717 44.392-8.503-4.889 17.102-13.219 35.097-27.342 44.896zm30.95-60.175c-11.398.575-36.671 2.894-59.894 12.178-4.762-3.772-9.907-6.962-15.342-9.528l77.73-19.426c-.486 4.547-1.265 10.351-2.494 16.776zm-106.42 10.131c16.229.65 31.489 7.369 42.967 18.919 11.469 11.541 18.146 26.868 18.802 43.157.317 7.875.495 15.797.55 23.727h-61.254c-6.522 0-12.783 1.126-18.615 3.172-7.814-15.55-18.393-24.009-30.267-24.009-11.885 0-22.465 8.459-30.271 24.01-5.833-2.047-12.096-3.174-18.62-3.174h-61.254c.055-7.929.233-15.851.55-23.726.655-16.289 7.333-31.616 18.802-43.157 11.479-11.551 26.738-18.269 42.967-18.919 15.866-.635 31.844-.953 47.821-.953s31.956.318 47.822.953zm-30.935 95.799c-6.901 4.775-12.683 11.049-16.886 18.346-4.202-7.296-9.982-13.568-16.882-18.343 4.997-9.894 11.212-15.836 16.887-15.836 5.666 0 11.879 5.941 16.881 15.833zm-95.892-103.281c-5.435 2.565-10.58 5.755-15.342 9.528-23.223-9.283-48.496-11.603-59.894-12.178-1.229-6.425-2.008-12.229-2.494-16.776zm-71.63 12.622c10.424.78 27.701 2.88 44.397 8.509-8.724 10.504-14.571 23.01-17.052 36.395-14.127-9.801-22.458-27.8-27.345-44.904zm59.847 157.526c-11.469-11.541-18.146-26.868-18.802-43.157-.25-6.213-.41-12.455-.497-18.706h61.201c22.82 0 41.386 18.566 41.386 41.386v40.311c-13.475-.084-26.938-.38-40.321-.916-16.229-.649-31.488-7.368-42.967-18.918zm181.577 0c-11.479 11.55-26.738 18.269-42.967 18.919-13.383.536-26.846.832-40.321.915v-40.311c0-22.821 18.566-41.386 41.386-41.386h61.201c-.087 6.251-.247 12.493-.497 18.705-.655 16.29-7.333 31.617-18.802 43.158z"/><path d="m280.408 96.365c-5.308 0-9.625 6.421-9.625 14.314s4.318 14.313 9.625 14.313 9.625-6.421 9.625-14.313-4.317-14.314-9.625-14.314z"/><path d="m398.563 124.992c5.308 0 9.626-6.421 9.626-14.313s-4.318-14.314-9.626-14.314-9.625 6.421-9.625 14.314 4.318 14.313 9.625 14.313z"/><path d="m401.021 177.887c6.052-2.506 6.041-11.347 0-13.85-2.964-1.228-6.521-.385-8.589 2.079-1.958 2.333-2.312 5.685-.886 8.376 1.773 3.344 5.972 4.872 9.475 3.395z"/><path d="m383.1 191.546c-1.216-2.88-4.156-4.781-7.297-4.62-3.004.153-5.672 2.144-6.688 4.967-1.042 2.896-.149 6.223 2.185 8.225 2.466 2.115 6.139 2.365 8.884.636 3.083-1.943 4.229-5.858 2.916-9.208z"/><path d="m413.93 193.506c-2.57-6.223-11.724-5.954-13.985.341-1.045 2.911-.148 6.25 2.211 8.251 2.477 2.101 6.107 2.336 8.85.606 3.069-1.936 4.265-5.849 2.924-9.198z"/><path d="m287.74 168.096c-2.531-6.128-11.529-5.995-13.917.17-1.202 3.103-.153 6.737 2.525 8.718 2.41 1.783 5.727 1.937 8.302.415 3.146-1.857 4.517-5.924 3.09-9.303z"/><path d="m309.72 191.546c-2.399-6.005-11.203-6.017-13.775-.167-1.323 3.009-.505 6.643 2.011 8.767 2.318 1.956 5.696 2.318 8.374.886 3.364-1.799 4.846-5.962 3.39-9.486z"/><path d="m278.89 193.506c-2.423-6.202-11.572-5.937-13.914.171-1.121 2.923-.279 6.327 2.098 8.371 2.514 2.162 6.219 2.407 8.994.602 2.975-1.936 4.209-5.865 2.822-9.144z"/></svg>